<svg width="251" height="118" viewBox="0 0 251 118" fill="none" xmlns="http://www.w3.org/2000/svg">
<path d="M0 30C0 24.4772 4.47715 20 10 20H62.75H94.125H104.301C106.688 20 108.996 20.8539 110.809 22.4074L117.8 28.3997C122.246 32.2105 128.793 32.256 133.291 28.5072L140.719 22.3178C142.516 20.8202 144.781 20 147.12 20H156.875H188.25H241C246.523 20 251 24.4772 251 30V108C251 113.523 246.523 118 241 118H10C4.47715 118 0 113.523 0 108V30Z" fill="white"/>
<path d="M4.5 33C4.5 27.7533 8.75329 23.5 14 23.5H64.75H95.125H104.908C107.147 23.5 109.315 24.2911 111.027 25.7336L117.556 31.2317C122.159 35.1082 128.871 35.1547 133.527 31.3422L140.48 25.6496C142.177 24.2595 144.304 23.5 146.498 23.5H155.875H186.25H237C242.247 23.5 246.5 27.7533 246.5 33V103C246.5 108.247 242.247 112.5 237 112.5H14C8.75329 112.5 4.5 108.247 4.5 103V33Z" stroke="#E8E8E8"/>
<circle cx="126" cy="13" r="13" fill="white"/>
<path d="M126.616 7.21861C126.616 8.00798 127.211 8.54283 127.947 8.54283C128.682 8.54283 129.279 8.00751 129.279 7.21861C129.279 6.42876 128.683 5.89392 127.947 5.89392C127.212 5.89392 126.616 6.42876 126.616 7.21861ZM123.732 11.7383C123.732 11.8949 123.704 12.2835 123.736 12.5174L124.898 11.1191C125.139 10.8556 125.417 10.6714 125.559 10.7211C125.701 10.7708 125.779 10.9381 125.733 11.0938L123.809 17.4641C123.588 18.2085 124.007 18.9397 125.028 19.1066C126.522 19.1066 127.411 18.095 128.284 16.7839C128.284 16.6274 128.336 16.2153 128.305 15.981L127.143 17.3788C126.902 17.6422 126.603 17.8264 126.461 17.7772C126.33 17.7313 126.253 17.585 126.279 17.4392L128.215 11.0394C128.377 10.2266 127.939 9.48689 127.014 9.3922C126.04 9.39267 124.606 10.4277 123.732 11.7383Z" fill="#ED1C24"/>
</svg>
