<svg width="138" height="504" viewBox="0 0 138 504" fill="none" xmlns="http://www.w3.org/2000/svg">
<path d="M36.5 0H137.5V0C121.76 0 109 12.7599 109 28.5V30V256V301V302.949C109 311.852 105.045 320.296 98.2055 325.995L75.0663 345.278C69.9552 349.537 67 355.847 67 362.5V362.5V476V476C67 491.464 79.536 504 95 504H97.5H0.5H1.99554C17.5422 504 30.2224 491.544 30.5 476V476V362.5V358.137C30.5 348.9 34.7559 340.177 42.037 334.492L56.7535 323.001C63.2202 317.951 67 310.204 67 302V302L66.5 30V30C66.5 13.4315 53.0685 0 36.5 0V0Z" fill="white"/>
</svg>
