<svg width="52" height="53" viewBox="0 0 52 53" fill="none" xmlns="http://www.w3.org/2000/svg">
<circle cx="26.0879" cy="26.6" r="25.9122" fill="#ED1C24"/>
<g clip-path="url(#clip0_79_141)">
<path fill-rule="evenodd" clip-rule="evenodd" d="M12.0602 22.0335C12.2371 19.2851 14.3668 17.0649 17.1038 16.7718C19.9428 16.4858 22.9603 16.3314 26.0881 16.3314C29.216 16.3314 32.2334 16.4858 35.0724 16.7732C37.8095 17.0649 39.9391 19.2851 40.1161 22.0335C40.2025 23.3872 40.2478 24.7706 40.2478 26.1752C40.2478 27.5798 40.2025 28.9632 40.1161 30.3169C39.9391 33.0653 37.8095 35.2855 35.0724 35.5786C32.2334 35.8647 29.216 36.019 26.0881 36.019C22.9603 36.019 19.9428 35.8647 17.1038 35.5772C14.3668 35.2855 12.2371 33.0653 12.0602 30.3169C11.9738 28.9632 11.9285 27.5798 11.9285 26.1752C11.9285 24.7706 11.9738 23.3872 12.0602 22.0335Z" fill="white"/>
<path fill-rule="evenodd" clip-rule="evenodd" d="M30.4139 26.1753L23.4629 30.4161V21.9344L30.4139 26.1753Z" fill="#ED1C24"/>
</g>
<defs>
<clipPath id="clip0_79_141">
<rect width="33.9832" height="33.9832" fill="white" transform="translate(9.09644 9.18359)"/>
</clipPath>
</defs>
</svg>
