<svg width="52" height="53" viewBox="0 0 52 53" fill="none" xmlns="http://www.w3.org/2000/svg">
<circle cx="25.9122" cy="26.6" r="25.9122" fill="#ED1C24"/>
<path fill-rule="evenodd" clip-rule="evenodd" d="M25.1591 36.2989H26.9872C26.9872 36.2989 27.5393 36.2396 27.8216 35.9439C28.081 35.672 28.0727 35.1619 28.0727 35.1619C28.0727 35.1619 28.0369 32.7731 29.1752 32.4214C30.2978 32.0747 31.7389 34.73 33.2663 35.7511C34.4214 36.5235 35.2991 36.3545 35.2991 36.3545L39.3836 36.2989C39.3836 36.2989 41.5202 36.1705 40.507 34.5346C40.4241 34.401 39.9168 33.3245 37.47 31.1128C34.9087 28.7979 35.2521 29.1724 38.3371 25.1683C40.2159 22.7297 40.9669 21.2411 40.7322 20.6035C40.5086 19.9961 39.1266 20.1565 39.1266 20.1565L34.5279 20.1842C34.5279 20.1842 34.1867 20.139 33.934 20.2863C33.6869 20.4303 33.5282 20.7667 33.5282 20.7667C33.5282 20.7667 32.8001 22.6536 31.8297 24.2585C29.7819 27.6447 28.9629 27.8239 28.6282 27.6133C27.8494 27.1232 28.0441 25.6448 28.0441 24.5943C28.0441 21.3126 28.5552 19.9443 27.0487 19.5902C26.5489 19.4727 26.1806 19.395 24.9021 19.3823C23.2611 19.366 21.8726 19.3872 21.0861 19.7624C20.5629 20.0119 20.1593 20.5677 20.4053 20.5997C20.7093 20.6392 21.3975 20.7807 21.7624 21.2641C22.2338 21.8887 22.2173 23.2907 22.2173 23.2907C22.2173 23.2907 22.4882 27.1537 21.5849 27.6334C20.9651 27.9626 20.1147 27.2907 18.289 24.2186C17.3537 22.645 16.6473 20.9054 16.6473 20.9054C16.6473 20.9054 16.5113 20.5803 16.2683 20.4063C15.9737 20.1955 15.5619 20.1287 15.5619 20.1287L11.1917 20.1565C11.1917 20.1565 10.5358 20.1743 10.2948 20.4522C10.0803 20.6995 10.2777 21.2103 10.2777 21.2103C10.2777 21.2103 13.6988 29.0052 17.573 32.9333C21.1257 36.5353 25.1591 36.2989 25.1591 36.2989Z" fill="white"/>
</svg>
