<svg width="226" height="226" viewBox="0 0 226 226" fill="none" xmlns="http://www.w3.org/2000/svg">
<circle cx="112.583" cy="112.583" r="104.232" transform="rotate(4.79695 112.583 112.583)" fill="#ED1C24"/>
<path d="M210.752 120.445C206.256 174.024 159.009 213.803 105.22 209.289C51.431 204.775 11.4749 157.678 15.9711 104.099C20.4674 50.5201 67.7141 10.7414 121.503 15.2553C175.292 19.7692 215.249 66.8659 210.752 120.445Z" stroke="white"/>
<path d="M56.833 181.51L49.8244 174.457L59.5052 164.837L60.7283 166.068L52.1815 174.561L56.7715 179.18L65.3183 170.687L66.5139 171.89L56.833 181.51Z" fill="white"/>
<path d="M53.0775 156.169C53.6342 157.047 53.9447 157.974 54.0089 158.949C54.062 159.931 53.8661 160.847 53.421 161.699C52.965 162.558 52.2979 163.265 51.4197 163.822C50.0805 164.671 48.6899 164.929 47.248 164.597C45.7991 164.254 44.6466 163.407 43.7906 162.057C43.2268 161.167 42.9219 160.237 42.8756 159.266C42.8115 158.291 43.0074 157.374 43.4635 156.516C43.9015 155.653 44.5597 154.944 45.4379 154.387C46.7661 153.545 48.1602 153.292 49.6201 153.628C51.069 153.972 52.2214 154.819 53.0775 156.169ZM52.298 159.964C52.516 158.949 52.3258 157.969 51.7272 157.025C51.1218 156.07 50.3168 155.48 49.3123 155.255C48.2899 155.026 47.3011 155.214 46.3461 155.819C45.3911 156.425 44.8045 157.235 44.5865 158.251C44.3505 159.262 44.5353 160.246 45.1408 161.201C45.7393 162.145 46.5498 162.731 47.5722 162.96C48.5767 163.185 49.5564 162.995 50.5115 162.389C51.4665 161.784 52.062 160.975 52.298 159.964Z" fill="white"/>
<path d="M46.0289 142.731C46.3909 143.692 46.5019 144.65 46.3618 145.606C46.205 146.554 45.8161 147.402 45.195 148.15C44.5693 148.885 43.776 149.434 42.8151 149.796C41.3434 150.351 39.9377 150.325 38.5981 149.718C37.2417 149.104 36.2886 148.067 35.7387 146.608C35.2989 145.44 35.2409 144.309 35.5648 143.215C35.8841 142.108 36.5217 141.201 37.4775 140.494L38.0549 142.027C37.5323 142.557 37.1986 143.183 37.0536 143.904C36.9041 144.613 36.9645 145.326 37.2348 146.044C37.6151 147.054 38.2863 147.766 39.2484 148.181C40.1937 148.589 41.1833 148.598 42.2172 148.209C42.8983 147.952 43.4614 147.567 43.9064 147.052C44.3392 146.542 44.619 145.957 44.7458 145.298C44.8558 144.632 44.7848 143.964 44.5328 143.295C44.2625 142.577 43.8395 142.007 43.2638 141.585C42.6714 141.156 41.9895 140.913 41.2181 140.856L40.627 139.287C41.8363 139.179 42.9343 139.439 43.921 140.067C44.891 140.688 45.5936 141.576 46.0289 142.731Z" fill="white"/>
<path d="M40.6269 120.622L40.846 122.206L33.3074 124.765L41.3496 127.411L41.4004 127.778L34.3761 132.49L42.3262 132.905L42.5453 134.489L31.8413 133.942L31.6516 132.571L38.4575 127.988L30.6657 125.445L30.476 124.074L40.6269 120.622Z" fill="white"/>
<path d="M41.0357 110.993C40.944 112.029 40.6273 112.953 40.0855 113.766C39.5309 114.579 38.818 115.187 37.947 115.593C37.063 115.998 36.1031 116.154 35.0674 116.062C33.4878 115.923 32.2266 115.282 31.2837 114.142C30.3419 112.989 29.9415 111.616 30.0825 110.023C30.1753 108.975 30.4985 108.051 31.0521 107.251C31.5938 106.438 32.3067 105.829 33.1907 105.425C34.0628 105.006 35.0168 104.843 36.0526 104.934C37.6192 105.073 38.8798 105.72 39.8345 106.874C40.7763 108.028 41.1767 109.4 41.0357 110.993ZM38.1098 113.533C38.9002 112.859 39.3447 111.965 39.4432 110.852C39.543 109.726 39.2624 108.768 38.6016 107.979C37.9289 107.175 37.0294 106.724 35.903 106.624C34.7766 106.524 33.8182 106.811 33.0278 107.485C32.2257 108.145 31.7747 109.038 31.675 110.164C31.5764 111.278 31.8634 112.236 32.5361 113.039C33.1969 113.829 34.0905 114.273 35.2169 114.373C36.3433 114.473 37.3076 114.193 38.1098 113.533Z" fill="white"/>
<path d="M34.2224 89.6927L35.6695 90.092L34.627 93.8696L43.3286 96.2712L42.8981 97.8311L34.1965 95.4295L33.1539 99.2071L31.7068 98.8077L34.2224 89.6927Z" fill="white"/>
<path d="M37.9511 80.026C38.6462 78.6152 39.6841 77.6849 41.065 77.2351C42.4516 76.7736 43.8561 76.8933 45.2785 77.5941C46.6893 78.2893 47.6399 79.33 48.1305 80.7164C48.6152 82.0854 48.5099 83.4753 47.8148 84.8861C47.1139 86.3085 46.0469 87.239 44.6137 87.6775L49.2483 89.9611L48.5158 91.4476L35.6964 85.1313L36.1962 84.1169L37.7943 84.5348C37.4879 83.8332 37.3441 83.0958 37.3628 82.3226C37.3873 81.5377 37.5834 80.7722 37.9511 80.026ZM46.329 84.2844C46.8231 83.2817 46.8987 82.2902 46.5558 81.3098C46.2129 80.3294 45.5401 79.5922 44.5374 79.0982C43.5347 78.6041 42.5402 78.5198 41.5539 78.8453C40.5677 79.1708 39.8275 79.8349 39.3334 80.8376C38.8394 81.8403 38.7668 82.8405 39.1156 83.8383C39.4584 84.8186 40.1254 85.553 41.1164 86.0413C41.7693 86.363 42.4358 86.5102 43.1157 86.483C43.8014 86.4441 44.428 86.2312 44.9954 85.8442C45.5628 85.4573 46.0073 84.9373 46.329 84.2844Z" fill="white"/>
<path d="M49.2159 62.7811L49.7842 62.0624L58.0426 68.5923L57.0752 69.8158L51.172 65.1481L53.2661 74.6332L52.6736 75.3826L44.4151 68.8526L45.3946 67.6139L51.252 72.2453L49.2159 62.7811Z" fill="white"/>
<path d="M61.3376 50.7214L62.3327 51.8454L59.3986 54.4431L65.3823 61.2018L64.1707 62.2745L58.187 55.5158L55.2528 58.1135L54.2577 56.9895L61.3376 50.7214Z" fill="white"/>
<path d="M76.1954 47.2058C76.2697 47.328 76.3632 47.5069 76.476 47.7426L68.7959 52.4115C69.4134 53.177 70.1662 53.6396 71.0543 53.7994C71.9357 53.9481 72.7984 53.7658 73.6425 53.2527C74.2644 52.8746 74.7332 52.4071 75.0487 51.8502C75.3686 51.2755 75.521 50.6504 75.5059 49.9751L76.9887 49.0737C77.1782 50.2362 77.054 51.308 76.6161 52.2892C76.1715 53.2592 75.4605 54.0413 74.4831 54.6355C73.1836 55.4254 71.8218 55.6373 70.3974 55.2711C68.9731 54.9049 67.8559 54.0554 67.0456 52.7226C66.2287 51.3787 65.9888 49.9958 66.3261 48.5739C66.6566 47.1409 67.4715 46.0294 68.771 45.2394C70.1149 44.4224 71.4857 44.2127 72.8834 44.6103C74.2812 45.0079 75.3852 45.8731 76.1954 47.2058ZM69.5913 46.5888C69.0582 46.9129 68.6337 47.3155 68.3177 47.7966C68.0129 48.271 67.8376 48.7958 67.7919 49.3712C67.7394 49.9355 67.8185 50.5035 68.0291 51.0751L74.2765 47.2772C73.8592 46.8159 73.388 46.4787 72.8629 46.2656C72.3311 46.0413 71.7878 45.9608 71.2332 46.0243C70.6717 46.0766 70.1245 46.2648 69.5913 46.5888Z" fill="white"/>
<path d="M93.6284 40.169C94.1942 40.2114 94.6892 40.409 95.1133 40.7618C95.5499 41.111 95.846 41.5607 96.0018 42.111C96.232 42.9239 96.123 43.6842 95.675 44.3919C95.2394 45.0961 94.5777 45.5739 93.6898 45.8252L88.606 47.2645L85.738 37.1345L90.7655 35.7112C91.6034 35.4739 92.3541 35.5248 93.0174 35.8639C93.6772 36.1904 94.1133 36.7289 94.3258 37.4792C94.4214 37.8169 94.4554 38.1517 94.4278 38.4837C94.4002 38.8158 94.32 39.1289 94.1872 39.4232C94.0508 39.7049 93.8646 39.9535 93.6284 40.169ZM92.8297 38.2067C92.7128 37.794 92.4832 37.5078 92.1408 37.3481C91.7948 37.1759 91.403 37.1517 90.9653 37.2756L87.7199 38.1945L88.4794 40.877L91.7248 39.9582C92.175 39.8308 92.4978 39.611 92.6931 39.2991C92.8975 38.971 92.943 38.6069 92.8297 38.2067ZM93.0773 44.3776C93.3899 44.2891 93.6536 44.1469 93.8683 43.951C94.092 43.7391 94.2408 43.5011 94.3146 43.2371C94.3885 42.973 94.3864 42.7034 94.3085 42.4283C94.2271 42.1406 94.0857 41.9037 93.8844 41.7176C93.6796 41.5189 93.4281 41.3942 93.1301 41.3435C92.8446 41.2892 92.5392 41.3081 92.2141 41.4002L88.8937 42.3403L89.7381 45.323L93.0773 44.3776Z" fill="white"/>
<path d="M107.643 32.7604L108.556 32.6778L109.505 43.1631L107.951 43.3037L107.273 35.8086L101.835 43.8571L100.883 43.9432L99.9345 33.4579L101.507 33.3156L102.18 40.7524L107.643 32.7604Z" fill="white"/>
<path d="M124.219 42.2689L125.635 42.4203L125.172 46.7434L123.66 46.5815L123.957 43.8093L115.524 42.9068L115.227 45.6789L113.715 45.5171L114.178 41.194L115.302 41.3144C115.643 41.0633 115.925 40.6882 116.148 40.1892C116.373 39.6773 116.607 38.892 116.851 37.8331C117.109 36.7627 117.467 35.0101 117.924 32.5753L125.174 33.3514L124.219 42.2689ZM119.241 34.187C118.94 35.9063 118.672 37.2437 118.439 38.1992C118.221 39.1431 118.006 39.8652 117.796 40.3656C117.587 40.853 117.343 41.2322 117.066 41.5032L122.61 42.0966L123.409 34.6331L119.241 34.187Z" fill="white"/>
<path d="M138.838 40.6573C138.795 40.7936 138.722 40.9818 138.619 41.2217L130.05 38.5085C129.88 39.4771 130.027 40.3484 130.49 41.1224C130.958 41.8841 131.663 42.414 132.605 42.7122C133.299 42.9319 133.959 42.9774 134.586 42.8488C135.229 42.7116 135.8 42.4153 136.299 41.9597L137.953 42.4835C137.202 43.391 136.314 44.0025 135.287 44.3181C134.263 44.6212 133.207 44.6002 132.116 44.2549C130.666 43.7958 129.611 42.9095 128.95 41.5958C128.289 40.2821 128.194 38.8818 128.665 37.3948C129.139 35.8955 130.023 34.8051 131.316 34.1238C132.613 33.4301 133.986 33.3128 135.436 33.7718C136.935 34.2466 137.995 35.1411 138.615 36.4554C139.235 37.7697 139.309 39.1704 138.838 40.6573ZM134.959 35.2774C134.364 35.089 133.782 35.0341 133.211 35.1126C132.654 35.195 132.143 35.4083 131.68 35.7523C131.22 36.084 130.844 36.5172 130.552 37.0519L137.522 39.259C137.595 38.6413 137.539 38.0646 137.355 37.5288C137.174 36.9807 136.877 36.5187 136.464 36.1426C136.055 35.7541 135.554 35.4657 134.959 35.2774Z" fill="white"/>
<path d="M147.3 51.7006C146.393 51.1919 145.68 50.5236 145.161 49.6957C144.648 48.8566 144.386 47.9566 144.373 46.9958C144.367 46.0237 144.619 45.0842 145.127 44.1774C145.903 42.7944 147.005 41.9071 148.432 41.5154C149.87 41.1301 151.286 41.3285 152.681 42.1108C153.599 42.6259 154.309 43.2999 154.81 44.1327C155.329 44.9605 155.592 45.8605 155.598 46.8326C155.622 47.7997 155.379 48.7367 154.87 49.6436C154.101 51.0152 152.994 51.8993 151.549 52.296C150.111 52.6813 148.695 52.4829 147.3 51.7006ZM146.185 47.99C146.475 48.9873 147.108 49.7594 148.082 50.3064C149.069 50.8597 150.057 50.997 151.048 50.7183C152.057 50.4347 152.838 49.7998 153.391 48.8136C153.944 47.8274 154.076 46.8357 153.786 45.8384C153.514 44.8361 152.885 44.0583 151.898 43.505C150.923 42.9581 149.932 42.8264 148.923 43.1101C147.932 43.3887 147.16 44.0211 146.607 45.0073C146.053 45.9935 145.913 46.9878 146.185 47.99Z" fill="white"/>
<path d="M164.664 64.5059C163.946 63.7544 163.459 62.9069 163.204 61.9635C162.959 61.0111 162.971 60.0737 163.24 59.1512C163.518 58.2198 164.033 57.3947 164.785 56.6761C165.931 55.5802 167.243 55.0534 168.722 55.0957C170.211 55.1474 171.507 55.751 172.612 56.9065C173.34 57.6674 173.821 58.5194 174.058 59.4624C174.312 60.4058 174.301 61.3432 174.022 62.2747C173.762 63.2065 173.257 64.0318 172.505 64.7504C171.369 65.8373 170.051 66.3594 168.554 66.3167C167.066 66.265 165.769 65.6614 164.664 64.5059ZM164.682 60.6314C164.668 61.6699 165.047 62.5931 165.82 63.401C166.601 64.2183 167.507 64.6385 168.536 64.6615C169.583 64.685 170.516 64.306 171.333 63.5245C172.15 62.743 172.566 61.833 172.58 60.7945C172.612 59.7564 172.238 58.8287 171.456 58.0114C170.684 57.2035 169.774 56.7878 168.726 56.7643C167.697 56.7413 166.774 57.1205 165.957 57.902C165.14 58.6835 164.715 59.5933 164.682 60.6314Z" fill="white"/>
<path d="M182.642 79.1811C182.648 80.2745 182.127 81.1084 181.078 81.683C180.531 81.9828 179.956 82.0975 179.354 82.027C178.77 81.9617 178.209 81.7211 177.67 81.3051C177.137 80.9005 176.686 80.362 176.317 79.6894C175.78 78.7091 175.588 77.7624 175.739 76.8493C175.897 75.9475 176.376 75.2257 177.176 74.6837L177.898 76.0003C177.514 76.3288 177.304 76.7555 177.265 77.2805C177.238 77.7992 177.384 78.3493 177.702 78.9306C178.04 79.5461 178.46 79.9753 178.964 80.2181C179.467 80.461 179.953 80.4543 180.42 80.1983C180.853 79.9609 181.119 79.5932 181.216 79.0951C181.32 78.6084 181.231 78.1086 180.95 77.5956L180.201 76.2278L181.381 75.5814L182.13 76.9492C182.392 77.428 182.721 77.7443 183.117 77.8981C183.53 78.057 183.93 78.0304 184.318 77.818C184.74 77.5869 184.985 77.2229 185.053 76.7259C185.122 76.2289 184.997 75.6897 184.678 75.1083C184.397 74.5954 184.049 74.2304 183.634 74.0133C183.219 73.7963 182.792 73.7483 182.355 73.8695L181.633 72.5529C182.16 72.3237 182.695 72.2454 183.239 72.318C183.789 72.4021 184.297 72.6272 184.765 72.9936C185.25 73.3651 185.655 73.8472 185.98 74.4399C186.498 75.386 186.681 76.3011 186.528 77.1852C186.375 78.0693 185.928 78.7143 185.187 79.1203C184.298 79.6074 183.449 79.6277 182.642 79.1811Z" fill="white"/>
<path d="M193.232 91.9691L193.64 93.2306L183.622 96.4674L183.196 95.1502L184.663 94.4917C183.955 94.2016 183.336 93.7663 182.807 93.1859C182.295 92.614 181.908 91.926 181.649 91.1221C181.173 89.6503 181.27 88.2598 181.94 86.9506C182.622 85.6375 183.711 84.7392 185.208 84.2557C186.705 83.7721 188.107 83.8653 189.417 84.535C190.738 85.2008 191.637 86.2696 192.112 87.7414C192.376 88.5577 192.461 89.3498 192.368 90.1175C192.278 90.8977 192.031 91.6127 191.626 92.2625L193.232 91.9691ZM183.412 87.7658C182.935 88.6986 182.868 89.6968 183.212 90.7604C183.556 91.8241 184.192 92.5884 185.121 93.0532C186.049 93.518 187.045 93.5786 188.109 93.235C189.173 92.8913 189.945 92.2593 190.426 91.3389C190.908 90.4185 190.976 89.4265 190.633 88.3628C190.289 87.2991 189.645 86.5307 188.7 86.0575C187.771 85.5926 186.781 85.53 185.729 85.8697C184.678 86.2094 183.906 86.8414 183.412 87.7658Z" fill="white"/>
<path d="M191.274 108.226C191.141 108.778 190.867 109.235 190.451 109.597C190.037 109.972 189.546 110.193 188.978 110.259C188.139 110.357 187.405 110.128 186.778 109.573C186.153 109.03 185.786 108.301 185.68 107.384L185.07 102.136L195.528 100.921L196.131 106.111C196.232 106.976 196.062 107.709 195.621 108.31C195.193 108.909 194.592 109.253 193.818 109.343C193.469 109.384 193.133 109.364 192.81 109.284C192.486 109.204 192.19 109.075 191.921 108.897C191.664 108.717 191.449 108.493 191.274 108.226ZM193.338 107.75C193.764 107.701 194.083 107.52 194.296 107.207C194.521 106.893 194.607 106.51 194.555 106.058L194.165 102.708L191.396 103.03L191.785 106.38C191.839 106.845 192.005 107.199 192.282 107.441C192.573 107.695 192.925 107.798 193.338 107.75ZM187.207 107.01C187.244 107.333 187.343 107.616 187.502 107.859C187.675 108.114 187.886 108.299 188.135 108.414C188.384 108.529 188.651 108.57 188.935 108.537C189.232 108.502 189.488 108.401 189.704 108.232C189.933 108.061 190.096 107.833 190.194 107.547C190.293 107.273 190.323 106.969 190.284 106.633L189.885 103.205L186.806 103.563L187.207 107.01Z" fill="white"/>
<path d="M185.878 119.578C185.959 118.541 186.265 117.613 186.798 116.794C187.344 115.976 188.05 115.359 188.916 114.944C189.796 114.53 190.754 114.363 191.791 114.443C193.372 114.566 194.64 115.192 195.595 116.322C196.55 117.465 196.965 118.833 196.841 120.427C196.76 121.477 196.447 122.404 195.902 123.209C195.37 124.029 194.663 124.645 193.784 125.059C192.916 125.488 191.964 125.662 190.928 125.581C189.36 125.46 188.092 124.827 187.125 123.683C186.17 122.54 185.755 121.172 185.878 119.578ZM188.776 117.006C187.993 117.688 187.559 118.587 187.472 119.701C187.385 120.829 187.676 121.783 188.345 122.565C189.027 123.361 189.931 123.803 191.059 123.89C192.186 123.977 193.141 123.68 193.924 122.997C194.719 122.329 195.16 121.431 195.248 120.304C195.334 119.189 195.036 118.234 194.355 117.438C193.685 116.656 192.787 116.222 191.66 116.134C190.532 116.047 189.571 116.337 188.776 117.006Z" fill="white"/>
<path d="M184.013 139.307L183.614 140.673L179.441 139.454L179.867 137.994L182.544 138.776L184.922 130.635L182.246 129.854L182.672 128.394L186.845 129.613L186.528 130.698C186.715 131.078 187.035 131.422 187.486 131.73C187.95 132.041 188.682 132.411 189.681 132.838C190.689 133.282 192.351 133.943 194.667 134.823L192.622 141.822L184.013 139.307ZM192.848 135.835C191.209 135.234 189.939 134.735 189.04 134.337C188.15 133.955 187.477 133.616 187.022 133.321C186.579 133.029 186.248 132.722 186.031 132.401L184.467 137.754L191.672 139.859L192.848 135.835Z" fill="white"/>
<path d="M180.75 155.398C180.624 155.332 180.452 155.226 180.234 155.082L184.42 147.129C183.497 146.79 182.613 146.78 181.77 147.1C180.937 147.425 180.291 148.025 179.831 148.899C179.492 149.543 179.33 150.185 179.346 150.825C179.367 151.483 179.558 152.097 179.918 152.669L179.11 154.204C178.349 153.305 177.905 152.321 177.776 151.255C177.658 150.194 177.866 149.158 178.399 148.146C179.107 146.8 180.166 145.918 181.576 145.5C182.986 145.081 184.381 145.236 185.761 145.962C187.153 146.695 188.07 147.757 188.512 149.15C188.965 150.549 188.838 151.922 188.129 153.267C187.397 154.659 186.329 155.544 184.926 155.921C183.522 156.299 182.131 156.125 180.75 155.398ZM186.732 152.532C187.022 151.98 187.18 151.416 187.203 150.841C187.221 150.277 187.101 149.737 186.845 149.22C186.599 148.709 186.24 148.263 185.765 147.881L182.36 154.35C182.955 154.532 183.532 154.578 184.092 154.491C184.664 154.41 185.171 154.2 185.614 153.86C186.069 153.527 186.441 153.084 186.732 152.532Z" fill="white"/>
<path d="M140.328 112.208L98.148 136.561V87.8555L140.328 112.208Z" fill="white"/>
</svg>
