<svg width="15" height="15" viewBox="0 0 15 15" fill="none" xmlns="http://www.w3.org/2000/svg">
<g clip-path="url(#clip0_79_167)">
<path d="M8 7.25C8.59334 7.25 9.17336 7.07405 9.66671 6.74441C10.1601 6.41477 10.5446 5.94623 10.7716 5.39805C10.9987 4.84987 11.0581 4.24667 10.9424 3.66473C10.8266 3.08279 10.5409 2.54824 10.1213 2.12868C9.70176 1.70912 9.16721 1.4234 8.58527 1.30765C8.00333 1.19189 7.40013 1.2513 6.85195 1.47836C6.30377 1.70543 5.83524 2.08994 5.50559 2.58329C5.17595 3.07664 5 3.65666 5 4.25C5 5.04565 5.31607 5.80871 5.87868 6.37132C6.44129 6.93393 7.20435 7.25 8 7.25Z" fill="#B9B9B9"/>
<path d="M12.5 14.75C12.6989 14.75 12.8897 14.671 13.0303 14.5303C13.171 14.3897 13.25 14.1989 13.25 14C13.25 12.6076 12.6969 11.2723 11.7123 10.2877C10.7277 9.30312 9.39239 8.75 8 8.75C6.60761 8.75 5.27226 9.30312 4.28769 10.2877C3.30312 11.2723 2.75 12.6076 2.75 14C2.75 14.1989 2.82902 14.3897 2.96967 14.5303C3.11032 14.671 3.30109 14.75 3.5 14.75H12.5Z" fill="#B9B9B9"/>
</g>
<defs>
<clipPath id="clip0_79_167">
<rect width="15" height="15" fill="white"/>
</clipPath>
</defs>
</svg>
